<?xml version="1.0" standalone="no"?>
<!DOCTYPE svg PUBLIC "-//W3C//DTD SVG 20010904//EN"
 "http://www.w3.org/TR/2001/REC-SVG-20010904/DTD/svg10.dtd">
<svg version="1.0" xmlns="http://www.w3.org/2000/svg"
 width="700.000000pt" height="700.000000pt" viewBox="0 0 700.000000 700.000000"
 preserveAspectRatio="xMidYMid meet">
<metadata>
Created by potrace 1.11, written by Peter Selinger 2001-2013
</metadata>
<g transform="translate(0.000000,700.000000) scale(0.100000,-0.100000)"
fill="#000000" stroke="none">
<path d="M3335 6994 c-501 -31 -922 -139 -1350 -348 -362 -176 -629 -364 -914
-641 -343 -335 -590 -687 -774 -1105 -447 -1016 -384 -2145 173 -3120 l90
-158 -276 -678 c-152 -374 -279 -698 -282 -722 -14 -118 102 -233 222 -220 22
3 142 47 266 97 270 110 417 170 824 336 l309 125 111 -65 c421 -249 880 -407
1371 -471 186 -25 610 -25 800 -1 846 108 1591 491 2163 1110 508 551 812
1210 908 1972 25 192 25 584 1 785 -85 705 -367 1348 -827 1885 -103 120 -342
352 -460 446 -530 423 -1148 681 -1805 754 -134 15 -444 25 -550 19z m-180
-2275 c34 -9 99 -70 422 -391 289 -289 386 -380 400 -376 10 3 356 133 768
288 836 314 818 309 907 257 97 -57 133 -183 77 -275 -13 -21 -399 -460 -857
-975 -585 -657 -844 -941 -869 -952 -50 -24 -101 -29 -153 -15 -40 11 -84 51
-425 391 -209 208 -386 379 -393 379 -6 0 -354 -128 -772 -285 -807 -302 -814
-305 -893 -271 -71 30 -118 103 -119 185 0 69 19 105 114 211 46 52 425 479
842 948 801 903 790 891 876 892 19 0 53 -5 75 -11z"/>
</g>
</svg>
